<svg xmlns="http://www.w3.org/2000/svg" xmlns:xlink="http://www.w3.org/1999/xlink" viewBox="0,0,256,256" width="100px" height="100px" fill-rule="nonzero"><g fill="none" fill-rule="nonzero" stroke="none" stroke-width="1" stroke-linecap="butt" stroke-linejoin="miter" stroke-miterlimit="10" stroke-dasharray="" stroke-dashoffset="0" font-family="none" font-weight="none" font-size="none" text-anchor="none" style="mix-blend-mode: normal"><g transform="scale(2.56,2.56)"><path d="M13,27c-1.10457,0 -2,0.89543 -2,2c0,1.10457 0.89543,2 2,2c1.10457,0 2,-0.89543 2,-2c0,-1.10457 -0.89543,-2 -2,-2z" fill="#ee3e54"></path><path d="M77,12c-0.55228,0 -1,0.44772 -1,1c0,0.55228 0.44772,1 1,1c0.55228,0 1,-0.44772 1,-1c0,-0.55228 -0.44772,-1 -1,-1z" fill="#f1bc19"></path><path d="M50,13c-20.43454,0 -37,16.56546 -37,37c0,20.43454 16.56546,37 37,37c20.43454,0 37,-16.56546 37,-37c0,-20.43454 -16.56546,-37 -37,-37z" fill="#ffc85d"></path><path d="M83,11c-2.20914,0 -4,1.79086 -4,4c0,2.20914 1.79086,4 4,4c2.20914,0 4,-1.79086 4,-4c0,-2.20914 -1.79086,-4 -4,-4z" fill="#f1bc19"></path><path d="M87,22c-1.10457,0 -2,0.89543 -2,2c0,1.10457 0.89543,2 2,2c1.10457,0 2,-0.89543 2,-2c0,-1.10457 -0.89543,-2 -2,-2z" fill="#ee3e54"></path><path d="M81,74c-1.10457,0 -2,0.89543 -2,2c0,1.10457 0.89543,2 2,2c1.10457,0 2,-0.89543 2,-2c0,-1.10457 -0.89543,-2 -2,-2zM15,59c-2.20914,0 -4,1.79086 -4,4c0,2.20914 1.79086,4 4,4c2.20914,0 4,-1.79086 4,-4c0,-2.20914 -1.79086,-4 -4,-4z" fill="#fbcd59"></path><path d="M25,85c-1.10457,0 -2,0.89543 -2,2c0,1.10457 0.89543,2 2,2c1.10457,0 2,-0.89543 2,-2c0,-1.10457 -0.89543,-2 -2,-2z" fill="#ee3e54"></path><path d="M18.5,51c-1.38071,0 -2.5,1.11929 -2.5,2.5c0,1.38071 1.11929,2.5 2.5,2.5c1.38071,0 2.5,-1.11929 2.5,-2.5c0,-1.38071 -1.11929,-2.5 -2.5,-2.5z" fill="#ffffff"></path><path d="M21,66c-0.55228,0 -1,0.44772 -1,1c0,0.55228 0.44772,1 1,1c0.55228,0 1,-0.44772 1,-1c0,-0.55228 -0.44772,-1 -1,-1z" fill="#f1bc19"></path><path d="M80,33c-0.55228,0 -1,0.44772 -1,1c0,0.55228 0.44772,1 1,1c0.55228,0 1,-0.44772 1,-1c0,-0.55228 -0.44772,-1 -1,-1z" fill="#ffffff"></path><g><path d="M50,25.625c-13.39291,0 -24.25,10.85709 -24.25,24.25c0,13.39291 10.85709,24.25 24.25,24.25c13.39291,0 24.25,-10.85709 24.25,-24.25c0,-13.39291 -10.85709,-24.25 -24.25,-24.25z" fill="#bc4b03"></path><path d="M50,74.825c-13.757,0 -24.95,-11.192 -24.95,-24.95c0,-13.758 11.193,-24.95 24.95,-24.95c13.757,0 24.95,11.192 24.95,24.95c0,13.758 -11.193,24.95 -24.95,24.95zM50,26.325c-12.985,0 -23.55,10.564 -23.55,23.55c0,12.986 10.565,23.55 23.55,23.55c12.985,0 23.55,-10.564 23.55,-23.55c0,-12.986 -10.565,-23.55 -23.55,-23.55z" fill="#472b29"></path></g><g fill="#472b29"><path d="M69.424,44.625c-0.214,0 -0.412,-0.139 -0.478,-0.354c-0.088,-0.287 -0.183,-0.571 -0.284,-0.853c-0.392,-1.094 -0.886,-2.159 -1.47,-3.169c-0.139,-0.238 -0.057,-0.545 0.182,-0.683c0.239,-0.139 0.545,-0.056 0.683,0.183c0.614,1.061 1.134,2.182 1.546,3.331c0.106,0.297 0.206,0.595 0.298,0.897c0.081,0.264 -0.067,0.544 -0.332,0.625c-0.048,0.016 -0.097,0.023 -0.145,0.023z"></path></g><g fill="#472b29"><path d="M50,70.75c-11.511,0 -20.875,-9.337 -20.875,-20.813c0,-11.476 9.364,-20.812 20.875,-20.812c5.975,0 11.674,2.56 15.636,7.023c0.299,0.337 0.588,0.685 0.865,1.041c0.169,0.218 0.13,0.531 -0.087,0.701c-0.218,0.171 -0.532,0.131 -0.702,-0.088c-0.264,-0.339 -0.54,-0.669 -0.824,-0.99c-3.772,-4.25 -9.199,-6.688 -14.888,-6.688c-10.959,0 -19.875,8.888 -19.875,19.813c0,10.925 8.916,19.813 19.875,19.813c10.959,0 19.875,-8.888 19.875,-19.813c0,-0.995 -0.075,-1.996 -0.222,-2.973c-0.041,-0.272 0.147,-0.527 0.42,-0.568c0.28,-0.044 0.528,0.147 0.569,0.42c0.154,1.025 0.233,2.076 0.233,3.121c0,11.476 -9.364,20.813 -20.875,20.813z"></path></g><g><path d="M46.43,42.147c0,0.666 0,3.383 0,3.383h-2.327v3.877h2.327v12.407h5.428v-12.407h3.189c0,0 0.299,-1.85 0.442,-3.877c-0.416,0 -4.407,0 -4.407,0c0,0 0,-2.439 0,-2.869c0,-0.429 0.562,-1.009 1.118,-1.009c0.556,0 2.422,0 3.534,0c0,-0.611 0,-2.709 0,-4.652c-1.479,0 -3.165,0 -3.904,0c-5.53,0.006 -5.4,4.479 -5.4,5.147z" fill="#fffef4"></path><path d="M51.859,62.064h-5.429c-0.138,0 -0.25,-0.112 -0.25,-0.25v-12.157h-2.077c-0.138,0 -0.25,-0.112 -0.25,-0.25v-3.877c0,-0.138 0.112,-0.25 0.25,-0.25h2.077v-3.134h0.25l-0.25,-0.044c-0.006,-1.643 0.461,-2.948 1.389,-3.88c0.971,-0.976 2.405,-1.471 4.261,-1.473h3.904c0.138,0 0.25,0.112 0.25,0.25v4.652c0,0.138 -0.112,0.25 -0.25,0.25h-3.534c-0.43,0 -0.868,0.486 -0.868,0.759v2.619h4.157c0.069,0 0.136,0.029 0.183,0.079c0.047,0.051 0.071,0.119 0.066,0.188c-0.143,2.015 -0.441,3.881 -0.445,3.899c-0.02,0.121 -0.124,0.21 -0.247,0.21h-2.938v12.157c0.001,0.14 -0.111,0.252 -0.249,0.252zM46.68,61.564h4.929v-12.157c0,-0.138 0.112,-0.25 0.25,-0.25h2.974c0.076,-0.51 0.271,-1.88 0.387,-3.377h-4.138c-0.138,0 -0.25,-0.112 -0.25,-0.25v-2.869c0,-0.55 0.663,-1.259 1.368,-1.259h3.284v-4.152h-3.654c-1.719,0.002 -3.034,0.448 -3.907,1.325c-0.831,0.835 -1.249,2.021 -1.243,3.525v0.046v3.384c0,0.138 -0.112,0.25 -0.25,0.25h-2.077v3.377h2.077c0.138,0 0.25,0.112 0.25,0.25z" fill="#472b29"></path></g></g></g></svg>